<svg width="46" height="42" viewBox="0 0 46 42" fill="none" xmlns="http://www.w3.org/2000/svg">
<path d="M5.90128 39.554L2.65503 36.321L9.82128 29.184L10.6788 30.038L4.37003 36.321L5.90128 37.846L12.21 31.563L13.0675 32.417L5.90128 39.554Z" fill="#1E1310"/>
<path d="M15.7625 33.576C14.7213 33.576 13.68 33.149 12.945 32.417L9.82129 29.306C8.29004 27.781 8.29004 25.28 9.82129 23.694L10.25 23.267L19.0088 31.99L18.58 32.417C17.845 33.149 16.865 33.576 15.7625 33.576ZM10.3113 25.036C9.63754 26.073 9.76004 27.537 10.6788 28.452L13.8025 31.563C14.2925 32.051 15.0275 32.356 15.7625 32.356C16.3138 32.356 16.8038 32.234 17.2325 31.929L10.3113 25.036Z" fill="#1E1310"/>
<path d="M5.53379 41.628C5.04379 41.628 4.61504 41.445 4.30879 41.14L1.12379 37.968C0.817539 37.663 0.633789 37.236 0.633789 36.748C0.633789 36.26 0.817539 35.833 1.12379 35.528C1.79754 34.857 2.90004 34.857 3.57379 35.528L6.75879 38.7C7.43254 39.371 7.43254 40.469 6.75879 41.14C6.45254 41.445 6.02379 41.628 5.53379 41.628ZM2.34879 36.199C2.22629 36.199 2.10379 36.26 1.98129 36.321C1.85879 36.443 1.85879 36.565 1.85879 36.687C1.85879 36.809 1.92004 36.931 1.98129 37.053L5.16629 40.225C5.35004 40.408 5.71754 40.408 5.90129 40.225C6.08504 40.042 6.08504 39.737 5.90129 39.493L2.71629 36.321C2.59379 36.26 2.47129 36.199 2.34879 36.199Z" fill="#1E1310"/>
<path d="M17.4163 31.807L16.5588 30.953L40.8751 6.73599V1.48999H36.2201L12.2713 26.134L11.4138 25.28L35.7301 0.269989H42.1001V7.22399L17.4163 31.807Z" fill="#1E1310"/>
<path d="M38.245 4.97L37.3669 4.11929L15.3288 26.6813L16.2069 27.532L38.245 4.97Z" fill="#1E1310"/>
<path d="M7.18765 33.21H5.96265V37.48H7.18765V33.21Z" fill="#1E1310"/>
<path d="M9.6376 30.77H8.4126V35.04H9.6376V30.77Z" fill="#1E1310"/>
<path d="M39.895 39.554L32.7288 32.417L33.5863 31.563L39.895 37.846L41.365 36.321L35.0563 30.038L35.9138 29.184L43.08 36.321L39.895 39.554Z" fill="#1E1310"/>
<path d="M29.9726 33.576C28.9313 33.576 27.8901 33.149 27.1551 32.417L26.7263 31.99L35.4851 23.267L35.9138 23.694C37.4451 25.219 37.4451 27.72 35.9138 29.306L32.7901 32.417C32.0551 33.149 31.0138 33.576 29.9726 33.576ZM28.5026 31.929C28.9313 32.173 29.4213 32.356 29.9726 32.356C30.7076 32.356 31.3813 32.051 31.9326 31.563L35.0563 28.452C35.9751 27.537 36.0976 26.134 35.4238 25.036L28.5026 31.929Z" fill="#1E1310"/>
<path d="M40.2013 41.628C39.7113 41.628 39.2825 41.445 38.9763 41.14C38.3025 40.469 38.3025 39.371 38.9763 38.7L42.1613 35.528C42.835 34.857 43.9375 34.857 44.6113 35.528C44.9175 35.833 45.1013 36.26 45.1013 36.748C45.1013 37.236 44.9175 37.663 44.6113 37.968L41.4263 41.14C41.12 41.445 40.6913 41.628 40.2013 41.628ZM43.4475 36.199C43.325 36.199 43.2025 36.26 43.08 36.321L39.895 39.493C39.7113 39.676 39.7113 39.981 39.895 40.225C40.0788 40.408 40.4463 40.408 40.63 40.225L43.815 37.053C43.9375 36.931 43.9375 36.809 43.9375 36.687C43.9375 36.565 43.8763 36.443 43.815 36.321C43.6925 36.26 43.57 36.199 43.4475 36.199Z" fill="#1E1310"/>
<path d="M29.0796 30.9306L23.2671 25.1598L22.4022 26.0238L28.2148 31.7946L29.0796 30.9306Z" fill="#1E1310"/>
<path d="M16.7425 20.339L3.51245 7.22399V0.269989H10.0662L23.1737 13.751L22.3162 14.605L9.51495 1.48999H4.73745V6.73599L17.6 19.485L16.7425 20.339Z" fill="#1E1310"/>
<path d="M34.3577 25.2712L28.9019 19.6642L28.0222 20.5132L33.478 26.1202L34.3577 25.2712Z" fill="#1E1310"/>
<path d="M20.3857 16.4149L8.38257 4.12997L7.50461 4.9808L19.5077 17.2658L20.3857 16.4149Z" fill="#1E1310"/>
<path d="M30.4713 26.6948L26.1997 22.3229L25.3217 23.1737L29.5933 27.5456L30.4713 26.6948Z" fill="#1E1310"/>
<path d="M39.6501 33.21H38.425V37.48H39.6501V33.21Z" fill="#1E1310"/>
<path d="M37.1999 30.77H35.9749V35.04H37.1999V30.77Z" fill="#1E1310"/>
</svg>
