<svg width="47" height="37" viewBox="0 0 47 37" fill="none" xmlns="http://www.w3.org/2000/svg">
<path d="M35.9434 18.4701C31.8835 18.4701 28.5811 21.7591 28.5811 25.8024C28.5811 29.8457 31.8835 33.1346 35.9434 33.1346C40.0032 33.1346 43.3057 29.8457 43.3057 25.8024C43.3057 21.7591 40.0032 18.4701 35.9434 18.4701ZM35.9434 31.7404C32.656 31.7404 29.9811 29.0764 29.9811 25.8024C29.9811 22.5284 32.656 19.8644 35.9434 19.8644C39.2308 19.8644 41.9057 22.5284 41.9057 25.8024C41.9057 29.0764 39.2308 31.7404 35.9434 31.7404Z" fill="#1E1310"/>
<path d="M11.0566 18.4701C6.99678 18.4701 3.69434 21.7591 3.69434 25.8024C3.69434 29.8457 6.99678 33.1346 11.0566 33.1346C15.1165 33.1346 18.4189 29.8457 18.4189 25.8024C18.4189 21.7591 15.1165 18.4701 11.0566 18.4701ZM11.0566 31.7404C7.76924 31.7404 5.09434 29.0764 5.09434 25.8024C5.09434 22.5284 7.76924 19.8644 11.0566 19.8644C14.344 19.8644 17.0189 22.5284 17.0189 25.8024C17.0189 29.0764 14.344 31.7404 11.0566 31.7404Z" fill="#1E1310"/>
<path d="M45.822 21.8245L40.976 9.91992C40.9603 9.8818 40.9411 9.84503 40.9192 9.81031C40.8735 9.73781 40.0163 8.42777 37.9615 7.57009L35.8353 2.25407C35.6665 1.83061 35.3514 1.4766 34.9487 1.25602C33.8912 0.675291 30.2702 -0.940937 28.1128 2.62103C27.9371 2.91105 27.8441 3.25554 27.8441 3.61568V9.09215C26.9797 9.8412 26.3077 10.7328 25.8408 11.7618C24.8929 11.3254 23.216 10.8944 21.1752 11.8018C20.7075 10.7563 20.031 9.85074 19.1557 9.09215V3.61568C19.1557 3.25554 19.0627 2.91105 18.887 2.62035C16.7303 -0.940256 13.1086 0.675972 12.0518 1.25602C11.6484 1.4766 11.3333 1.83061 11.1651 2.25339L9.0383 7.57009C6.98355 8.42777 6.12632 9.73781 6.08057 9.81031C6.05869 9.84503 6.03955 9.8818 6.02383 9.91992L1.17783 21.8245C1.17347 21.8352 1.17548 21.8463 1.17168 21.8571C0.67851 23.0782 0.399902 24.4076 0.399902 25.8024C0.399902 31.6539 5.18027 36.4148 11.0564 36.4148C16.9319 36.4148 21.7123 31.6539 21.7123 25.8024C21.7123 25.7113 21.7009 25.623 21.6986 25.5324C21.6991 25.5193 21.7057 25.508 21.7055 25.4947L21.6106 20.5981C23.3537 19.7728 24.7319 20.2228 25.39 20.5568L25.2943 25.4947C25.2941 25.508 25.3007 25.5192 25.3012 25.5324C25.2989 25.623 25.2875 25.7112 25.2875 25.8024C25.2875 31.6539 30.0679 36.4148 35.9434 36.4148C41.8195 36.4148 46.5999 31.6539 46.5999 25.8024C46.5999 24.4075 46.3213 23.0781 45.8281 21.857C45.8243 21.8462 45.8263 21.8351 45.822 21.8245ZM29.3118 3.34064C30.7303 0.999353 33.0285 1.79453 34.274 2.47738C34.3943 2.54342 34.4846 2.64417 34.5345 2.76944L36.247 7.05042C36.0564 7.01196 35.8623 6.97583 35.6583 6.94685C33.3702 6.62305 31.1034 7.03604 29.2441 8.10439V3.61568C29.2441 3.51016 29.2681 3.4128 29.3118 3.34064ZM29.8293 9.37256C31.4378 8.41194 33.4366 8.04022 35.4601 8.32752C38.3024 8.73124 39.5076 10.2372 39.7065 10.5129L42.5456 17.4873C40.7282 16.053 38.437 15.1893 35.9434 15.1893C32.1491 15.1893 28.8207 17.1809 26.9322 20.1635C26.9164 20.0559 26.8692 19.9569 26.804 19.8659L26.9418 12.7575C27.4729 11.338 28.4443 10.1997 29.8293 9.37256ZM12.466 2.76876C12.5152 2.64417 12.6055 2.54342 12.7265 2.47738C13.9713 1.79453 16.2695 1.00003 17.688 3.33996C17.7317 3.4128 17.7557 3.51016 17.7557 3.61568V8.10447C15.8958 7.03676 13.6283 6.625 11.3415 6.94685C11.1376 6.97583 10.9434 7.01196 10.7529 7.05042L12.466 2.76876ZM7.29258 10.5136C7.49971 10.2283 8.70625 8.72988 11.5397 8.32752C13.5591 8.04159 15.5613 8.41194 17.1705 9.37256C18.5555 10.1997 19.5269 11.338 20.058 12.7575L20.1955 19.8482C20.1241 19.9437 20.0888 20.0561 20.073 20.1724C18.1856 17.1849 14.8544 15.1893 11.0564 15.1893C8.56269 15.1893 6.27137 16.0531 4.45395 17.4875L7.29258 10.5136ZM11.0564 35.0205C5.95205 35.0205 1.7999 30.8853 1.7999 25.8024C1.7999 24.5346 2.05856 23.3259 2.52545 22.2254L2.53041 22.2132C3.93848 18.9078 7.22977 16.5836 11.0564 16.5836C16.1602 16.5836 20.3123 20.7188 20.3123 25.8024C20.3123 30.8853 16.1602 35.0205 11.0564 35.0205ZM21.5816 19.1008L21.4674 13.2082C23.4191 12.2167 24.9356 12.8287 25.5331 13.1679L25.419 19.0567C24.5108 18.7271 23.1719 18.5153 21.5816 19.1008ZM35.9434 35.0205C30.8396 35.0205 26.6875 30.8853 26.6875 25.8024C26.6875 20.7188 30.8396 16.5836 35.9434 16.5836C39.77 16.5836 43.0613 18.9078 44.4693 22.2132L44.4744 22.2256C44.9412 23.326 45.1999 24.5346 45.1999 25.8024C45.1999 30.8853 41.0477 35.0205 35.9434 35.0205Z" fill="#1E1310"/>
</svg>
