<svg width="55" height="37" viewBox="0 0 55 37" fill="none" xmlns="http://www.w3.org/2000/svg">
<path d="M47.0938 14.85C47.8223 14.85 54.2188 14.7754 54.2188 12.1875C54.2188 11.9739 54.1415 11.7675 54.0012 11.6061C53.8608 11.4447 53.6667 11.3392 53.4546 11.3089C53.3949 11.3 47.7626 10.4808 45.162 8.93303L42.5943 1.25704C42.5353 1.08039 42.422 0.926719 42.2704 0.817776C42.1189 0.708832 41.9368 0.650135 41.75 0.649994H13.25C13.0632 0.650135 12.8811 0.708832 12.7296 0.817776C12.578 0.926719 12.4647 1.08039 12.4057 1.25704L9.83802 8.93303C7.24006 10.4791 1.60419 11.3 1.54541 11.3089C1.33326 11.3392 1.1392 11.4447 0.998839 11.6061C0.858476 11.7675 0.781221 11.9739 0.78125 12.1875C0.78125 14.7754 7.17772 14.85 7.90625 14.85H9.6875V30.825H4.34375C4.17824 30.8249 4.01599 30.8708 3.87519 30.9575C3.73439 31.0442 3.62062 31.1683 3.54664 31.3158L1.76539 34.8658C1.69752 35.0011 1.6655 35.1515 1.67237 35.3026C1.67924 35.4538 1.72477 35.6007 1.80464 35.7293C1.88451 35.858 1.99606 35.9642 2.1287 36.0378C2.26134 36.1115 2.41067 36.1501 2.5625 36.15H52.4375C52.5897 36.1508 52.7396 36.1128 52.8728 36.0395C53.0061 35.9662 53.1183 35.86 53.1986 35.7312C53.279 35.6025 53.325 35.4553 53.332 35.3038C53.3391 35.1523 53.3071 35.0015 53.2391 34.8658L51.4578 31.3158C51.3835 31.1676 51.269 31.0431 51.1274 30.9563C50.9857 30.8696 50.8225 30.8241 50.6562 30.825H45.3125V14.85H47.0938ZM50.1058 32.6L50.9965 34.375H4.00353L4.89416 32.6H50.1058ZM13.25 23.725V30.825H11.4688V23.725H13.25ZM11.4688 21.95V14.85H13.25V21.95H11.4688ZM16.8125 23.725V30.825H15.0312V23.725H16.8125ZM15.0312 21.95V14.85H16.8125V21.95H15.0312ZM26.6094 16.6765C25.6282 16.7978 24.7251 17.2716 24.0693 18.0089C23.4135 18.7462 23.05 19.6965 23.0469 20.6818V24.9932C23.0483 26.0687 23.4777 27.0998 24.2408 27.8602C25.004 28.6207 26.0386 29.0486 27.1179 29.05H27.8821C28.9614 29.0486 29.996 28.6207 30.7592 27.8602C31.5223 27.0998 31.9517 26.0687 31.9531 24.9932V20.6818C31.95 19.6965 31.5865 18.7462 30.9307 18.0089C30.2749 17.2716 29.3718 16.7978 28.3906 16.6765V14.85H36.4062V30.825H18.5938V14.85H26.6094V16.6765ZM27.1179 18.4H27.8821C28.4892 18.4005 29.0714 18.641 29.5007 19.0688C29.93 19.4966 30.1714 20.0767 30.1719 20.6818V24.9932C30.1714 25.5982 29.93 26.1784 29.5007 26.6062C29.0714 27.034 28.4892 27.2745 27.8821 27.275H27.1179C26.5108 27.2745 25.9286 27.034 25.4993 26.6062C25.07 26.1784 24.8286 25.5982 24.8281 24.9932V20.6818C24.8286 20.0767 25.07 19.4966 25.4993 19.0688C25.9286 18.641 26.5108 18.4005 27.1179 18.4ZM39.9688 23.725V30.825H38.1875V23.725H39.9688ZM38.1875 21.95V14.85H39.9688V21.95H38.1875ZM43.5312 23.725V30.825H41.75V23.725H43.5312ZM41.75 21.95V14.85H43.5312V21.95H41.75ZM7.90625 13.075C6.60449 13.0924 5.30524 12.9563 4.03559 12.6694C6.16597 12.2363 9.29741 11.442 11.0715 10.2634C11.2331 10.1517 11.3518 9.9887 11.4082 9.80101H11.4215L13.8921 2.42499H41.1079L43.5776 9.80544H43.5909C43.6473 9.99314 43.766 10.1562 43.9276 10.2678C45.7026 11.4464 48.834 12.2407 50.9635 12.6738C49.694 12.9591 48.395 13.0938 47.0938 13.075H7.90625Z" fill="#1E1310"/>
</svg>
