<svg width="43" height="43" viewBox="0 0 43 43" fill="none" xmlns="http://www.w3.org/2000/svg">
<path d="M39.5636 37.7814C39.7066 37.924 39.7911 38.1184 39.7911 38.3258C39.7911 38.5266 39.7066 38.7275 39.5636 38.8701C39.4206 39.0126 39.2191 39.0969 39.0176 39.0969C38.8096 39.0969 38.6146 39.0126 38.4651 38.8701C38.3221 38.7275 38.2441 38.5266 38.2441 38.3258C38.2441 38.1184 38.3221 37.924 38.4716 37.7814C38.7511 37.4963 39.2776 37.4898 39.5636 37.7814ZM3.38461 37.9499C3.24161 38.099 3.15711 38.2934 3.15711 38.4942C3.15711 38.7016 3.24161 38.896 3.38461 39.045C3.53411 39.1876 3.72911 39.2654 3.93061 39.2654C4.13211 39.2654 4.33361 39.1876 4.48311 39.045C4.62611 38.896 4.70411 38.7016 4.70411 38.4942C4.70411 38.2934 4.62611 38.0925 4.48311 37.9499C4.19061 37.6648 3.67711 37.6648 3.38461 37.9499ZM3.93061 5.38793C4.13211 5.38793 4.33361 5.30369 4.48311 5.16113C4.62611 5.01857 4.70411 4.81769 4.70411 4.61681C4.70411 4.41593 4.62611 4.21505 4.48311 4.07249C4.19711 3.78737 3.67711 3.78089 3.38461 4.07249C3.24161 4.21505 3.15711 4.41593 3.15711 4.61681C3.15711 4.81769 3.24161 5.01857 3.38461 5.16113C3.53411 5.30369 3.72911 5.38793 3.93061 5.38793ZM38.7966 5.19353C38.9981 5.19353 39.1996 5.10928 39.3426 4.96673C39.4856 4.81769 39.5701 4.62328 39.5701 4.42241C39.5701 4.21504 39.4856 4.02065 39.3426 3.87161C39.0501 3.58649 38.5366 3.58649 38.2506 3.87161C38.1076 4.02065 38.0231 4.21504 38.0231 4.42241C38.0231 4.62328 38.1076 4.81769 38.2506 4.96673C38.3936 5.10928 38.5951 5.19353 38.7966 5.19353ZM42.9631 1.20185V41.5982C42.9631 42.0239 42.6167 42.3693 42.1896 42.3693H0.812563C0.385513 42.3693 0.0390625 42.0239 0.0390625 41.5982V1.20185C0.0390625 0.776109 0.385513 0.430725 0.812563 0.430725H42.1896C42.6167 0.430725 42.9631 0.776109 42.9631 1.20185ZM41.4161 1.97297H7.67266V6.78825H35.9477H41.4168V1.97297H41.4161ZM11.6195 34.7799L35.3295 11.1435V8.01945H31.3814L7.67266 31.6566V34.7806H11.6195V34.7799ZM24.8548 8.0201V12.7855L29.6349 8.0201H24.8548ZM23.9116 8.0201H19.0717V18.5501L23.9116 13.7251V8.0201ZM18.1292 8.0201H13.3088V24.2959L18.1292 19.4897V8.0201ZM12.3663 8.0201H7.67266V29.9147L12.3663 25.2355V8.0201ZM13.366 34.7799H18.1292V30.032L13.366 34.7799ZM19.0717 34.7799H23.9116V24.2674L19.0717 29.0924V34.7799ZM24.8548 23.3978V34.7806H29.6934V18.5041L24.8431 23.3395C24.845 23.3589 24.8548 23.3771 24.8548 23.3978ZM30.6359 34.7799H35.3295V12.8853L30.6359 17.5638V34.7799ZM1.58606 1.97297V34.7799H6.43701V7.40385V1.97297H1.58606ZM1.58606 40.827H35.3295V36.0118H7.05451H1.58541V40.827H1.58606ZM41.4161 40.827V8.0201H36.5652V35.3962V40.827H41.4161Z" fill="#1E1310"/>
</svg>
